<svg width="198" height="49" fill="none" xmlns="http://www.w3.org/2000/svg"><g clip-path="url(#clip0)" fill-rule="evenodd" clip-rule="evenodd"><path d="M8.271 1v10.284a9.972 9.972 0 013.093-2.098 9.207 9.207 0 013.561-.697 9.349 9.349 0 013.838.779 9.212 9.212 0 013.162 2.276c1.921 2.041 2.881 4.657 2.881 7.849 0 3.078-.994 5.65-2.982 7.718-1.988 2.068-4.34 3.1-7.056 3.099a8.893 8.893 0 01-3.382-.639 10.286 10.286 0 01-3.115-2.066v2.203H3V1h5.271zm5.54 12.252a5.595 5.595 0 00-2.246.404 5.52 5.52 0 00-1.886 1.266C8.583 16.042 8.035 17.5 8.035 19.3c0 1.837.548 3.328 1.644 4.459a5.445 5.445 0 001.88 1.29 5.52 5.52 0 002.251.414 5.451 5.451 0 002.224-.433 5.374 5.374 0 001.845-1.296c1.104-1.159 1.655-2.63 1.653-4.416-.002-1.784-.538-3.24-1.61-4.365a5.354 5.354 0 00-1.858-1.29 5.43 5.43 0 00-2.235-.415l-.019.004zM25.845 9h5.353v9.959c0 1.94.136 3.282.41 4.028a3.548 3.548 0 001.31 1.76c.657.43 1.436.647 2.226.62a3.971 3.971 0 002.245-.62 3.621 3.621 0 001.37-1.813c.217-.598.33-1.874.33-3.823V8.997h5.284v8.763c0 3.617-.29 6.09-.872 7.42a8.089 8.089 0 01-3.15 3.738c-1.378.865-3.133 1.299-5.264 1.301-2.31 0-4.177-.507-5.602-1.521a8.021 8.021 0 01-3.014-4.24c-.42-1.253-.63-3.535-.63-6.847V8.997l.004.003zm19.907-7.997h5.275v28.711h-5.275V1v.003zm6.77 0h5.272v16.534L65.592 9h6.587l-9.018 9.888 10.155 10.826h-6.56l-8.961-9.553v9.55h-5.271V1.003z" fill="#013068"/><path d="M90.916 8.985v20.713h-2.695v-3.563a11.385 11.385 0 01-3.82 3.055 10.863 10.863 0 01-6.478.847 10.763 10.763 0 01-5.772-3.016 10.644 10.644 0 01-2.376-3.557 10.505 10.505 0 01-.772-4.189c-.022-1.419.25-2.827.797-4.14a10.462 10.462 0 012.392-3.495 10.396 10.396 0 013.499-2.375 10.54 10.54 0 014.172-.798A10.141 10.141 0 0184.55 9.54c1.47.78 2.732 1.891 3.681 3.244v-3.8h2.686zm-10.848 2.067a8.29 8.29 0 00-4.184 1.101 8.119 8.119 0 00-3.027 3.047 8.263 8.263 0 00-1.132 4.171c0 1.464.39 2.902 1.132 4.17a8.186 8.186 0 003.06 3.1 8.11 8.11 0 004.123 1.112 8.546 8.546 0 004.203-1.1 7.735 7.735 0 003.061-2.978 8.386 8.386 0 001.074-4.239 8.099 8.099 0 00-.58-3.236 8.202 8.202 0 00-1.823-2.753 7.958 7.958 0 00-2.697-1.812 8.064 8.064 0 00-3.21-.593v.01zm13.701-2.067h2.696v3.808a10.653 10.653 0 013.693-3.244 10.065 10.065 0 014.667-1.072 10.568 10.568 0 014.175.799 10.421 10.421 0 013.502 2.374 10.453 10.453 0 012.395 3.494c.549 1.312.82 2.721.798 4.14a10.514 10.514 0 01-.781 4.191 10.64 10.64 0 01-2.387 3.556 10.718 10.718 0 01-5.772 3.015 10.82 10.82 0 01-6.477-.865 11.668 11.668 0 01-3.813-3.068v11.155h-2.696V8.985zm10.858 2.067a8.058 8.058 0 00-3.214.59 7.95 7.95 0 00-2.7 1.814 8.189 8.189 0 00-1.82 2.75 8.084 8.084 0 00-.58 3.23 8.354 8.354 0 001.071 4.227 7.733 7.733 0 003.067 2.977 8.612 8.612 0 004.213 1.1 8.069 8.069 0 004.094-1.112 8.165 8.165 0 003.061-3.099 8.269 8.269 0 001.132-4.17 8.269 8.269 0 00-1.132-4.17 8.118 8.118 0 00-3.023-3.046 8.292 8.292 0 00-4.179-1.104l.01.013zm12.895-2.067h2.698v3.808a10.654 10.654 0 013.694-3.244 10.062 10.062 0 014.667-1.072 10.563 10.563 0 014.174.799 10.425 10.425 0 013.503 2.374 10.45 10.45 0 012.394 3.494 10.31 10.31 0 01.799 4.14 10.514 10.514 0 01-.781 4.191 10.654 10.654 0 01-2.387 3.556 10.717 10.717 0 01-5.773 3.015 10.818 10.818 0 01-6.476-.865 11.673 11.673 0 01-3.814-3.068v11.155h-2.695V8.985h-.003zm10.857 2.067a8.057 8.057 0 00-3.213.59 7.937 7.937 0 00-2.7 1.814 8.197 8.197 0 00-1.821 2.75 8.09 8.09 0 00-.579 3.23 8.35 8.35 0 001.071 4.227 7.725 7.725 0 003.067 2.977 8.606 8.606 0 004.204 1.11 8.068 8.068 0 004.093-1.113 8.158 8.158 0 003.061-3.098 8.258 8.258 0 001.132-4.171c0-1.464-.39-2.902-1.132-4.17a8.118 8.118 0 00-3.023-3.046 8.29 8.29 0 00-4.179-1.103l.019.003zm33.829-2.067v20.713h-2.689v-3.563a11.386 11.386 0 01-3.819 3.055 10.866 10.866 0 01-6.48.848 10.763 10.763 0 01-5.773-3.017 10.653 10.653 0 01-2.376-3.557 10.516 10.516 0 01-.773-4.189c-.022-1.42.25-2.828.799-4.14a10.45 10.45 0 012.394-3.495 10.404 10.404 0 013.499-2.375 10.55 10.55 0 014.172-.798 10.143 10.143 0 014.686 1.073c1.47.78 2.732 1.891 3.681 3.244v-3.8h2.679zm-10.851 2.067a8.29 8.29 0 00-4.18 1.103 8.122 8.122 0 00-3.025 3.046 8.268 8.268 0 00-1.131 4.17c0 1.464.39 2.902 1.131 4.17a8.173 8.173 0 003.061 3.1 8.104 8.104 0 004.122 1.112 8.526 8.526 0 004.201-1.1 7.736 7.736 0 003.061-2.978 8.358 8.358 0 001.08-4.239 8.084 8.084 0 00-.581-3.237 8.182 8.182 0 00-1.825-2.752 7.952 7.952 0 00-2.697-1.813 8.06 8.06 0 00-3.211-.592l-.006.01zm12.634-2.067h2.774v3.03a9.4 9.4 0 012.617-2.668 5.31 5.31 0 012.868-.87 5.03 5.03 0 012.406.703l-1.414 2.234a3.878 3.878 0 00-1.435-.362c-.981.03-1.915.42-2.617 1.093-.838.729-1.48 1.86-1.921 3.409-.338 1.177-.506 3.561-.504 7.151v7.003h-2.774V8.985zm27.452 13.86a12.328 12.328 0 01-2.314 2.922 8.226 8.226 0 01-2.595 1.447 9.238 9.238 0 01-3.149.548 7.666 7.666 0 01-3.058-.569 7.568 7.568 0 01-2.566-1.733c-1.511-1.527-2.295-3.49-2.352-5.887h19.032c-.025-2.828-.802-5.184-2.33-7.068-2.148-2.673-5.025-4.01-8.631-4.013-3.496 0-6.286 1.305-8.37 3.914a10.888 10.888 0 00-2.472 7.008 11.051 11.051 0 002.913 7.493c1.941 2.208 4.635 3.313 8.08 3.315 1.424.022 2.84-.212 4.178-.69a10.508 10.508 0 003.316-2.015c1.072-1 1.954-2.18 2.605-3.486l-2.287-1.186zm.026-5.578h-15.786c.56-1.905 1.382-3.33 2.478-4.285a7.856 7.856 0 015.353-1.958 8.59 8.59 0 013.6.78 7.525 7.525 0 012.761 2.055 8.714 8.714 0 011.575 3.408h.019zM195.742 1h2.695v28.71h-2.695V1z" fill="#CD0000"/><path d="M166.447 49c-.601-.037-6.096-4.146-6.971-4.772-2.205-1.586-2.271-3.33-.051-4.92.81-.58 6.528-4.862 7.022-4.81l29.38-.092c.576 0 1.128.226 1.536.627.407.4.636.944.637 1.511v10.225a2.129 2.129 0 01-.638 1.51c-.407.4-.959.626-1.535.628l-29.38.093z" fill="#013068"/><path d="M184.68 45.114a.614.614 0 01-.205.484.66.66 0 01-.491.204h-.022a.675.675 0 01-.488-.204.632.632 0 01-.208-.484V40.99c0-.445.088-.887.262-1.299a3.423 3.423 0 011.866-1.836 3.51 3.51 0 011.32-.258 3.332 3.332 0 011.54.336c.477.233.89.578 1.203 1.003.311-.426.723-.77 1.201-1.004a3.31 3.31 0 011.538-.335 3.49 3.49 0 012.437.994c.32.316.574.69.747 1.101.173.412.262.853.261 1.298v4.124a.648.648 0 01-.198.483.678.678 0 01-.494.205h-.016a.715.715 0 01-.492-.204.692.692 0 01-.207-.484V40.99a1.993 1.993 0 00-.567-1.468 2.042 2.042 0 00-1.469-.615 2.066 2.066 0 00-1.469.615 1.98 1.98 0 00-.567 1.468v4.124a.69.69 0 01-.206.483.716.716 0 01-.49.205.69.69 0 01-.497-.204.639.639 0 01-.224-.484V40.99c0-.53-.214-1.04-.596-1.415a2.05 2.05 0 00-1.438-.586c-.54 0-1.057.21-1.439.586a1.987 1.987 0 00-.595 1.415v4.124h.003zm-21.275-4.833c.294 0 .582.087.826.248s.434.39.546.657a1.442 1.442 0 01-.326 1.594 1.507 1.507 0 01-1.62.314 1.478 1.478 0 01-.666-.54 1.441 1.441 0 01.189-1.847 1.486 1.486 0 011.051-.426zm7.391-2.684c.428 0 .853.066 1.26.196a.616.616 0 01.488.654v.037a.683.683 0 01-.288.551.713.713 0 01-.622.102 2.636 2.636 0 00-.838-.133 2.8 2.8 0 00-2.015.763 2.697 2.697 0 00-.624 3.018c.145.336.357.64.624.894a2.777 2.777 0 002.015.763c.284 0 .567-.043.838-.127a.7.7 0 01.836.341c.05.097.075.204.074.313a.616.616 0 01-.488.654c-.408.126-.833.19-1.26.189a4.207 4.207 0 01-2.878-1.242 4.076 4.076 0 01-1.183-2.865c0-1.07.425-2.099 1.183-2.866a4.207 4.207 0 012.878-1.242zm6.994 0c-.966 0-1.903.328-2.65.93a4.103 4.103 0 00-1.449 2.374 4.05 4.05 0 00.411 2.739 4.154 4.154 0 002.083 1.86 4.238 4.238 0 002.81.139 4.168 4.168 0 002.261-1.648 4.06 4.06 0 00-.516-5.188 4.004 4.004 0 00-1.347-.905 4.063 4.063 0 00-1.603-.3zm0 1.407a2.668 2.668 0 011.949.797 2.706 2.706 0 01.81 1.92 2.708 2.708 0 01-.81 1.921 2.671 2.671 0 01-1.949.8 2.802 2.802 0 01-2.015-.763 2.68 2.68 0 01-.624-3.018c.145-.336.357-.64.624-.894a2.8 2.8 0 012.015-.763z" fill="#fff"/></g><defs><clipPath id="clip0"><path fill="#fff" d="M0 0h198v49H0z"/></clipPath></defs></svg>